<svg width="398" height="29" viewBox="0 0 398 29" fill="none" xmlns="http://www.w3.org/2000/svg">
<path d="M0.6 2.256H16.548V6.36H4.848V13.668H15.036V17.736H4.848V28.5H0.6V2.256ZM26.6963 28.896C24.8963 28.896 23.3603 28.548 22.0883 27.852C20.8163 27.156 19.8323 26.196 19.1363 24.972C18.4643 23.724 18.1283 22.308 18.1283 20.724C18.1283 19.212 18.5123 17.844 19.2803 16.62C20.0723 15.372 21.1163 14.388 22.4123 13.668C23.7323 12.924 25.1843 12.552 26.7683 12.552C28.8803 12.552 30.6203 13.164 31.9883 14.388C33.3563 15.588 34.2683 17.304 34.7243 19.536L22.4483 23.676L21.5123 21.372L31.0163 17.988L30.1883 18.456C29.9243 17.736 29.5043 17.112 28.9283 16.584C28.3523 16.056 27.5363 15.792 26.4803 15.792C25.2083 15.792 24.1763 16.236 23.3843 17.124C22.5923 17.988 22.1963 19.116 22.1963 20.508C22.1963 22.02 22.6283 23.22 23.4923 24.108C24.3803 24.972 25.4723 25.404 26.7683 25.404C27.3923 25.404 27.9923 25.296 28.5683 25.08C29.1443 24.864 29.6843 24.576 30.1883 24.216L32.0603 27.24C31.2683 27.744 30.3923 28.152 29.4323 28.464C28.4963 28.752 27.5843 28.896 26.6963 28.896ZM42.3268 13.236L42.7228 17.556L42.5788 16.944C43.0108 16.032 43.5988 15.252 44.3428 14.604C45.0868 13.932 45.8548 13.428 46.6468 13.092C47.4628 12.732 48.1228 12.552 48.6268 12.552L48.4108 16.62C47.2588 16.524 46.2628 16.74 45.4228 17.268C44.5828 17.772 43.9228 18.456 43.4428 19.32C42.9628 20.16 42.7228 21.048 42.7228 21.984V28.5H38.6548V13.236H42.3268ZM56.4253 13.236L56.7493 16.476L56.6413 16.08C57.1453 15.024 57.9133 14.184 58.9453 13.56C60.0013 12.912 61.2613 12.588 62.7253 12.588C64.1653 12.588 65.3533 13.008 66.2893 13.848C67.2253 14.688 67.7053 15.792 67.7293 17.16V28.5H63.6253V18.636C63.6013 17.892 63.3853 17.292 62.9773 16.836C62.5693 16.356 61.9333 16.104 61.0693 16.08C59.8213 16.08 58.8013 16.62 58.0093 17.7C57.2173 18.756 56.8213 20.112 56.8213 21.768V28.5H52.7173V13.236H56.4253ZM79.6917 28.896C78.2517 28.896 76.9437 28.596 75.7677 27.996C74.6157 27.396 73.6917 26.508 72.9957 25.332C72.3237 24.132 71.9877 22.644 71.9877 20.868C71.9877 19.164 72.3477 17.688 73.0677 16.44C73.7877 15.192 74.7237 14.232 75.8757 13.56C77.0517 12.888 78.3117 12.552 79.6557 12.552C81.1437 12.552 82.3317 12.84 83.2197 13.416C84.1077 13.992 84.8157 14.664 85.3437 15.432L85.1277 16.008L85.5237 13.236H89.3037V28.5H85.1997V24.828L85.5597 25.764C85.4877 25.908 85.3077 26.148 85.0197 26.484C84.7317 26.796 84.3357 27.144 83.8317 27.528C83.3517 27.888 82.7637 28.212 82.0677 28.5C81.3717 28.764 80.5797 28.896 79.6917 28.896ZM80.8077 25.512C81.9117 25.512 82.8357 25.236 83.5797 24.684C84.3477 24.132 84.8877 23.352 85.1997 22.344V18.996C84.9117 18.084 84.3597 17.34 83.5437 16.764C82.7277 16.188 81.7677 15.9 80.6637 15.9C79.8477 15.9 79.0917 16.104 78.3957 16.512C77.7237 16.896 77.1837 17.448 76.7757 18.168C76.3677 18.888 76.1637 19.716 76.1637 20.652C76.1637 21.588 76.3797 22.428 76.8117 23.172C77.2437 23.892 77.8077 24.468 78.5037 24.9C79.2237 25.308 79.9917 25.512 80.8077 25.512ZM98.5425 13.236L98.8665 16.476L98.7585 16.08C99.2625 15.024 100.031 14.184 101.062 13.56C102.118 12.912 103.379 12.588 104.843 12.588C106.283 12.588 107.471 13.008 108.407 13.848C109.343 14.688 109.823 15.792 109.847 17.16V28.5H105.743V18.636C105.719 17.892 105.503 17.292 105.095 16.836C104.687 16.356 104.051 16.104 103.187 16.08C101.939 16.08 100.919 16.62 100.127 17.7C99.3345 18.756 98.9385 20.112 98.9385 21.768V28.5H94.8345V13.236H98.5425ZM121.629 28.896C120.189 28.896 118.905 28.56 117.777 27.888C116.649 27.216 115.749 26.256 115.077 25.008C114.429 23.76 114.105 22.296 114.105 20.616C114.105 18.912 114.453 17.46 115.149 16.26C115.869 15.06 116.829 14.148 118.029 13.524C119.253 12.876 120.621 12.552 122.133 12.552C123.237 12.552 124.293 12.768 125.301 13.2C126.309 13.608 127.113 14.196 127.713 14.964L127.605 16.332V0.383999H131.709V28.5H127.569V25.08L127.965 26.088C127.221 26.88 126.309 27.552 125.229 28.104C124.173 28.632 122.973 28.896 121.629 28.896ZM122.925 25.44C124.101 25.44 125.085 25.152 125.877 24.576C126.669 24 127.233 23.208 127.569 22.2V18.924C127.305 18.012 126.741 17.268 125.877 16.692C125.037 16.092 124.053 15.792 122.925 15.792C122.109 15.792 121.341 15.996 120.621 16.404C119.925 16.812 119.361 17.376 118.929 18.096C118.497 18.816 118.281 19.644 118.281 20.58C118.281 21.468 118.497 22.284 118.929 23.028C119.361 23.772 119.925 24.36 120.621 24.792C121.341 25.224 122.109 25.44 122.925 25.44ZM143.676 28.896C142.236 28.896 140.928 28.596 139.752 27.996C138.6 27.396 137.676 26.508 136.98 25.332C136.308 24.132 135.972 22.644 135.972 20.868C135.972 19.164 136.332 17.688 137.052 16.44C137.772 15.192 138.708 14.232 139.86 13.56C141.036 12.888 142.296 12.552 143.64 12.552C145.128 12.552 146.316 12.84 147.204 13.416C148.092 13.992 148.8 14.664 149.328 15.432L149.112 16.008L149.508 13.236H153.288V28.5H149.184V24.828L149.544 25.764C149.472 25.908 149.292 26.148 149.004 26.484C148.716 26.796 148.32 27.144 147.816 27.528C147.336 27.888 146.748 28.212 146.052 28.5C145.356 28.764 144.564 28.896 143.676 28.896ZM144.792 25.512C145.896 25.512 146.82 25.236 147.564 24.684C148.332 24.132 148.872 23.352 149.184 22.344V18.996C148.896 18.084 148.344 17.34 147.528 16.764C146.712 16.188 145.752 15.9 144.648 15.9C143.832 15.9 143.076 16.104 142.38 16.512C141.708 16.896 141.168 17.448 140.76 18.168C140.352 18.888 140.148 19.716 140.148 20.652C140.148 21.588 140.364 22.428 140.796 23.172C141.228 23.892 141.792 24.468 142.488 24.9C143.208 25.308 143.976 25.512 144.792 25.512ZM183.763 26.448C183.403 26.712 182.839 27.036 182.071 27.42C181.303 27.804 180.391 28.14 179.335 28.428C178.279 28.692 177.127 28.812 175.879 28.788C173.815 28.764 171.967 28.404 170.335 27.708C168.727 26.988 167.347 26.028 166.195 24.828C165.067 23.604 164.203 22.212 163.603 20.652C163.003 19.068 162.703 17.376 162.703 15.576C162.703 13.608 163.015 11.796 163.639 10.14C164.287 8.484 165.175 7.044 166.303 5.82C167.455 4.596 168.823 3.648 170.407 2.976C171.991 2.304 173.719 1.968 175.591 1.968C177.247 1.968 178.735 2.196 180.055 2.652C181.375 3.108 182.479 3.612 183.367 4.164L181.675 8.16C181.003 7.68 180.163 7.212 179.155 6.756C178.147 6.3 177.007 6.072 175.735 6.072C174.199 6.072 172.771 6.492 171.451 7.332C170.155 8.148 169.111 9.252 168.319 10.644C167.527 12.036 167.131 13.608 167.131 15.36C167.131 17.16 167.491 18.768 168.211 20.184C168.931 21.576 169.951 22.68 171.271 23.496C172.615 24.288 174.175 24.684 175.951 24.684C177.319 24.684 178.507 24.48 179.515 24.072C180.547 23.64 181.363 23.16 181.963 22.632L183.763 26.448ZM186.69 26.304C186.69 25.656 186.918 25.116 187.374 24.684C187.83 24.252 188.334 24.036 188.886 24.036C189.414 24.036 189.894 24.252 190.326 24.684C190.782 25.116 191.01 25.656 191.01 26.304C191.01 26.952 190.782 27.48 190.326 27.888C189.894 28.296 189.414 28.5 188.886 28.5C188.334 28.5 187.83 28.296 187.374 27.888C186.918 27.48 186.69 26.952 186.69 26.304ZM200.147 28.5V2.256H207.635C210.251 2.256 212.471 2.652 214.295 3.444C216.119 4.236 217.595 5.292 218.723 6.612C219.851 7.908 220.667 9.36 221.171 10.968C221.699 12.552 221.963 14.148 221.963 15.756C221.963 17.724 221.615 19.5 220.919 21.084C220.247 22.644 219.299 23.976 218.075 25.08C216.851 26.184 215.447 27.036 213.863 27.636C212.303 28.212 210.647 28.5 208.895 28.5H200.147ZM204.395 24.396H208.103C209.975 24.396 211.619 24.06 213.035 23.388C214.451 22.692 215.555 21.684 216.347 20.364C217.163 19.02 217.571 17.388 217.571 15.468C217.571 13.812 217.295 12.408 216.743 11.256C216.215 10.104 215.507 9.168 214.619 8.448C213.755 7.728 212.807 7.2 211.775 6.864C210.767 6.528 209.783 6.36 208.823 6.36H204.395V24.396ZM224.87 26.304C224.87 25.656 225.098 25.116 225.554 24.684C226.01 24.252 226.514 24.036 227.066 24.036C227.594 24.036 228.074 24.252 228.506 24.684C228.962 25.116 229.19 25.656 229.19 26.304C229.19 26.952 228.962 27.48 228.506 27.888C228.074 28.296 227.594 28.5 227.066 28.5C226.514 28.5 226.01 28.296 225.554 27.888C225.098 27.48 224.87 26.952 224.87 26.304ZM257.767 26.448C257.407 26.712 256.843 27.036 256.075 27.42C255.307 27.804 254.395 28.14 253.339 28.428C252.283 28.692 251.131 28.812 249.883 28.788C247.819 28.764 245.971 28.404 244.339 27.708C242.731 26.988 241.351 26.028 240.199 24.828C239.071 23.604 238.207 22.212 237.607 20.652C237.007 19.068 236.707 17.376 236.707 15.576C236.707 13.608 237.019 11.796 237.643 10.14C238.291 8.484 239.179 7.044 240.307 5.82C241.459 4.596 242.827 3.648 244.411 2.976C245.995 2.304 247.723 1.968 249.595 1.968C251.251 1.968 252.739 2.196 254.059 2.652C255.379 3.108 256.483 3.612 257.371 4.164L255.679 8.16C255.007 7.68 254.167 7.212 253.159 6.756C252.151 6.3 251.011 6.072 249.739 6.072C248.203 6.072 246.775 6.492 245.455 7.332C244.159 8.148 243.115 9.252 242.323 10.644C241.531 12.036 241.135 13.608 241.135 15.36C241.135 17.16 241.495 18.768 242.215 20.184C242.935 21.576 243.955 22.68 245.275 23.496C246.619 24.288 248.179 24.684 249.955 24.684C251.323 24.684 252.511 24.48 253.519 24.072C254.551 23.64 255.367 23.16 255.967 22.632L257.767 26.448ZM269.802 28.896C268.002 28.896 266.466 28.548 265.194 27.852C263.922 27.156 262.938 26.196 262.242 24.972C261.57 23.724 261.234 22.308 261.234 20.724C261.234 19.212 261.618 17.844 262.386 16.62C263.178 15.372 264.222 14.388 265.518 13.668C266.838 12.924 268.29 12.552 269.874 12.552C271.986 12.552 273.726 13.164 275.094 14.388C276.462 15.588 277.374 17.304 277.83 19.536L265.554 23.676L264.618 21.372L274.122 17.988L273.294 18.456C273.03 17.736 272.61 17.112 272.034 16.584C271.458 16.056 270.642 15.792 269.586 15.792C268.314 15.792 267.282 16.236 266.49 17.124C265.698 17.988 265.302 19.116 265.302 20.508C265.302 22.02 265.734 23.22 266.598 24.108C267.486 24.972 268.578 25.404 269.874 25.404C270.498 25.404 271.098 25.296 271.674 25.08C272.25 24.864 272.79 24.576 273.294 24.216L275.166 27.24C274.374 27.744 273.498 28.152 272.538 28.464C271.602 28.752 270.69 28.896 269.802 28.896ZM294.396 27.096C293.724 27.648 292.896 28.092 291.912 28.428C290.928 28.74 289.956 28.896 288.996 28.896C287.292 28.896 285.792 28.572 284.496 27.924C283.224 27.252 282.228 26.328 281.508 25.152C280.812 23.952 280.464 22.524 280.464 20.868C280.464 19.188 280.848 17.748 281.616 16.548C282.384 15.348 283.38 14.436 284.604 13.812C285.852 13.164 287.172 12.84 288.564 12.84C289.86 12.84 291 13.02 291.984 13.38C292.968 13.716 293.82 14.196 294.54 14.82L292.524 17.448C292.14 17.136 291.636 16.848 291.012 16.584C290.412 16.32 289.716 16.188 288.924 16.188C288.132 16.188 287.4 16.392 286.728 16.8C286.056 17.208 285.528 17.76 285.144 18.456C284.76 19.152 284.568 19.956 284.568 20.868C284.568 21.732 284.772 22.524 285.18 23.244C285.588 23.94 286.14 24.492 286.836 24.9C287.556 25.308 288.384 25.512 289.32 25.512C289.92 25.512 290.472 25.428 290.976 25.26C291.504 25.068 291.96 24.828 292.344 24.54L294.396 27.096ZM311.166 27.096C310.494 27.648 309.666 28.092 308.682 28.428C307.698 28.74 306.726 28.896 305.766 28.896C304.062 28.896 302.562 28.572 301.266 27.924C299.994 27.252 298.998 26.328 298.278 25.152C297.582 23.952 297.234 22.524 297.234 20.868C297.234 19.188 297.618 17.748 298.386 16.548C299.154 15.348 300.15 14.436 301.374 13.812C302.622 13.164 303.942 12.84 305.334 12.84C306.63 12.84 307.77 13.02 308.754 13.38C309.738 13.716 310.59 14.196 311.31 14.82L309.294 17.448C308.91 17.136 308.406 16.848 307.782 16.584C307.182 16.32 306.486 16.188 305.694 16.188C304.902 16.188 304.17 16.392 303.498 16.8C302.826 17.208 302.298 17.76 301.914 18.456C301.53 19.152 301.338 19.956 301.338 20.868C301.338 21.732 301.542 22.524 301.95 23.244C302.358 23.94 302.91 24.492 303.606 24.9C304.326 25.308 305.154 25.512 306.09 25.512C306.69 25.512 307.242 25.428 307.746 25.26C308.274 25.068 308.73 24.828 309.114 24.54L311.166 27.096ZM315.299 28.5V0.383999H319.295V16.548L319.259 15.936C319.787 14.952 320.555 14.148 321.563 13.524C322.595 12.9 323.843 12.588 325.307 12.588C326.747 12.588 327.935 13.008 328.871 13.848C329.807 14.688 330.287 15.792 330.311 17.16V28.5H326.207V18.636C326.183 17.892 325.967 17.292 325.559 16.836C325.151 16.356 324.515 16.104 323.651 16.08C322.403 16.08 321.383 16.62 320.591 17.7C319.799 18.78 319.403 20.136 319.403 21.768V28.5H315.299ZM343.138 28.896C341.338 28.896 339.802 28.548 338.53 27.852C337.258 27.156 336.274 26.196 335.578 24.972C334.906 23.724 334.57 22.308 334.57 20.724C334.57 19.212 334.954 17.844 335.722 16.62C336.514 15.372 337.558 14.388 338.854 13.668C340.174 12.924 341.626 12.552 343.21 12.552C345.322 12.552 347.062 13.164 348.43 14.388C349.798 15.588 350.71 17.304 351.166 19.536L338.89 23.676L337.954 21.372L347.458 17.988L346.63 18.456C346.366 17.736 345.946 17.112 345.37 16.584C344.794 16.056 343.978 15.792 342.922 15.792C341.65 15.792 340.618 16.236 339.826 17.124C339.034 17.988 338.638 19.116 338.638 20.508C338.638 22.02 339.07 23.22 339.934 24.108C340.822 24.972 341.914 25.404 343.21 25.404C343.834 25.404 344.434 25.296 345.01 25.08C345.586 24.864 346.126 24.576 346.63 24.216L348.502 27.24C347.71 27.744 346.834 28.152 345.874 28.464C344.938 28.752 344.026 28.896 343.138 28.896ZM356.536 6.54H360.676V13.236H364.636V16.44H360.676V28.5H356.536V16.44H353.944V13.236H356.536V6.54ZM370.036 6.54H374.176V13.236H378.136V16.44H374.176V28.5H370.036V16.44H367.444V13.236H370.036V6.54ZM380.8 20.688C380.8 19.152 381.16 17.772 381.88 16.548C382.624 15.3 383.644 14.328 384.94 13.632C386.26 12.912 387.76 12.552 389.44 12.552C391.144 12.552 392.62 12.912 393.868 13.632C395.14 14.328 396.124 15.3 396.82 16.548C397.516 17.772 397.864 19.152 397.864 20.688C397.864 22.248 397.516 23.652 396.82 24.9C396.124 26.124 395.14 27.096 393.868 27.816C392.596 28.536 391.096 28.896 389.368 28.896C387.736 28.896 386.272 28.572 384.976 27.924C383.68 27.252 382.66 26.304 381.916 25.08C381.172 23.832 380.8 22.368 380.8 20.688ZM384.94 20.724C384.94 21.636 385.132 22.452 385.516 23.172C385.9 23.892 386.428 24.468 387.1 24.9C387.772 25.308 388.516 25.512 389.332 25.512C390.628 25.512 391.684 25.056 392.5 24.144C393.316 23.232 393.724 22.092 393.724 20.724C393.724 19.38 393.316 18.252 392.5 17.34C391.684 16.404 390.628 15.936 389.332 15.936C388.492 15.936 387.736 16.152 387.064 16.584C386.416 17.016 385.9 17.592 385.516 18.312C385.132 19.032 384.94 19.836 384.94 20.724Z" fill="#F1627B"/>
</svg>
